<?xml version="1.0" standalone="no"?>
<!DOCTYPE svg PUBLIC "-//W3C//DTD SVG 20010904//EN"
 "http://www.w3.org/TR/2001/REC-SVG-20010904/DTD/svg10.dtd">
<svg version="1.0" xmlns="http://www.w3.org/2000/svg"
 width="133.000000pt" height="17.000000pt" viewBox="0 0 133.000000 17.000000"
 preserveAspectRatio="xMidYMid meet">

<g transform="translate(0.000000,17.000000) scale(0.100000,-0.100000)"
fill="#000000" stroke="none">
<path d="M53 160 c-47 -19 -57 -87 -18 -125 13 -14 35 -25 47 -25 29 0 68 26
68 46 0 19 -19 18 -42 -3 -27 -24 -53 -6 -53 38 0 39 22 49 60 29 35 -19 50
-9 28 17 -21 26 -59 36 -90 23z"/>
<path d="M223 160 c-49 -20 -59 -96 -17 -129 35 -28 69 -26 99 4 61 60 -4 157
-82 125z m67 -51 c9 -16 8 -26 -5 -45 -8 -13 -22 -24 -30 -24 -19 0 -45 28
-45 49 0 41 61 57 80 20z"/>
<path d="M708 159 c-10 -5 -18 -21 -18 -35 0 -19 8 -28 34 -39 42 -18 52 -31
36 -50 -16 -19 -25 -19 -45 1 -20 20 -33 11 -15 -11 16 -19 64 -20 80 0 19 23
7 49 -32 68 -45 22 -53 57 -14 57 13 0 26 -6 29 -12 2 -7 8 -9 13 -5 5 5 1 15
-10 23 -23 16 -35 17 -58 3z"/>
<path d="M980 163 c-33 -12 -50 -37 -50 -73 0 -97 128 -108 146 -13 5 27 1 37
-24 63 -30 30 -43 34 -72 23z m60 -33 c38 -38 14 -100 -40 -100 -35 0 -50 17
-50 56 0 59 51 83 90 44z"/>
<path d="M350 150 c0 -5 14 -10 30 -10 17 0 30 -3 30 -7 0 -5 -14 -28 -30 -53
-42 -63 -40 -70 25 -70 42 0 55 3 55 15 0 11 -11 15 -36 15 l-36 0 36 49 c20
27 36 54 36 60 0 7 -21 11 -55 11 -30 0 -55 -4 -55 -10z"/>
<path d="M519 133 c-22 -57 -39 -106 -39 -114 0 -15 28 -10 34 6 7 20 63 19
74 -1 5 -9 16 -14 24 -13 25 6 -32 143 -61 147 -15 3 -24 -4 -32 -25z m47 -60
c-2 -3 -11 -3 -19 -1 -11 2 -12 9 -5 28 l10 25 9 -24 c5 -13 7 -26 5 -28z"/>
<path d="M823 153 c26 -4 27 -6 27 -74 0 -39 4 -69 10 -69 6 0 10 30 10 69 0
64 2 70 23 74 12 2 -5 4 -38 4 -33 0 -48 -2 -32 -4z"/>
<path d="M1112 83 c0 -43 3 -63 5 -46 5 41 25 42 53 3 12 -17 26 -30 31 -30 6
0 1 14 -12 31 l-21 30 21 15 c43 31 19 74 -41 74 l-38 0 2 -77z m66 58 c25
-16 9 -46 -26 -49 -28 -3 -32 0 -32 21 0 13 3 27 7 30 9 10 35 8 51 -2z"/>
<path d="M1230 85 l0 -75 45 0 c25 0 45 5 45 10 0 6 -16 10 -35 10 -31 0 -35
3 -35 25 0 21 5 25 33 26 l32 1 -30 7 c-23 5 -31 12 -33 33 -3 24 0 27 35 31
36 3 35 4 -9 5 l-48 2 0 -75z"/>
</g>
</svg>
